<?xml version="1.0" encoding="utf-8"?>
<!-- Generator: Adobe Illustrator 22.0.1, SVG Export Plug-In . SVG Version: 6.00 Build 0)  -->
<svg version="1.1" id="Layer_1" xmlns="http://www.w3.org/2000/svg" xmlns:xlink="http://www.w3.org/1999/xlink" x="0px" y="0px"
	 viewBox="0 0 462 334.5" style="enable-background:new 0 0 462 334.5;" xml:space="preserve">
<style type="text/css">
	.st0{display:none;fill:none;stroke:#2B2A29;stroke-width:150;}
	.st1{fill:#EF7F1A;}
	.st2{fill:#B2B3B3;}
	.st3{fill:#FEFEFE;}
	.st4{fill:#2B2A29;}
</style>
<g id="Слой_x0020_1">
	<path class="st0" d="M10.5,131.7h439.7c3.9,0,7.1,3.2,7.1,7.1v83.7c0,3.9-3.2,7.1-7.1,7.1H10.5c-3.9,0-7.1-3.2-7.1-7.1v-83.7
		C3.4,134.9,6.6,131.7,10.5,131.7z"/>
	<g id="_504660024">
		<path class="st1" d="M233.8,208.2l-5.2,5.9l-0.1,0.1c-2,2-3.8,4.1-5.7,6.1c-2.7,3-5.4,6.1-8.2,9.2c-4.4,5-8.8,10.1-13.1,15.2l0,0
			l-4.3,4.9c-6.6,7.2-14,15.8-14.2,26.1c0,0.5-0.1,2.1,0.1,2.6c0.2,0.3,1,1,1.3,1.3c3.2,2.9,6.6,5.5,9.7,8.7l1.8,2l-1.3,2.4
			c-0.8,1.5-2.7,3.5-3.8,4.8c-2.2,2.5-4.3,5-6.5,7.5c-2.2,2.4-4.3,4.9-6.5,7.3c-1,1.1-2.1,2.4-3.3,3.5l0.2,0.2l-2.6,2.7
			c-1.1,1.2-2.2,2.1-3.1,3.4c-1.2,1.6-2.8,3.2-4.3,4.5l-2,1.7l-0.7-0.5c-1.3,1.6-2.8,3.3-4.6,4.3l-2.7,1.5l-1.9-2.4
			c-0.3-0.4-0.6-0.7-0.8-0.9l-0.3,0.1l-6.9-6.3c-0.6-0.2-1.1-0.6-1.6-1.1c-1.7-1.8-1.3-4.3-0.2-6.3c0.3-0.5,0.7-1,1-1.5
			c-5.7-0.3-9.8-1.1-15.7-4.2c-5.3-2.8-10.4-7.3-13.5-12.5c-2.1-3.6-3.7-7.3-4.5-11.4c-0.1-0.7-0.2-1.3-0.3-2c-1,1-2.1,2-3.2,2.5
			l-2.2,1l-3.1-2.7l-0.7,0.2l-1.5-2c-0.6-0.8-1.2-1.4-2-1.9c-1.1-0.7-2-1.2-2.7-2.4c-0.1-0.2-0.2-0.3-0.3-0.5
			c-0.3-0.1-0.6-0.3-0.9-0.5l-2.1-1.1l0.2-2.4c0.3-2.8,1.8-5,3.9-6.7l0.5-1.4c0.8-2.4,5.8-7.6,7.8-9.6l1.1-1.1c1-1.9,4-5,5.5-6.6
			c1.7-1.8,3.3-3.7,5-5.6c3.4-4,6.6-8.3,10.5-11.9l1.7-1.6l2.1,0.9c3,1.2,5.3,3.8,7.6,6.1c1.4,1.5,3.9,4.3,6.3,4.1
			c14.2-1.6,28.5-21.1,37.5-31.2l27.5-31.1l-3-3.4c-1.5-1.5-3-3.2-4.5-4.8c-2.2-2.5-4.5-5.1-6.7-7.6c-2.2-2.5-4.4-5-6.7-7.6
			c-1.3-1.4-2.7-3.1-4.1-4.5l-0.1-0.1l-22.9-26.1c-0.9-0.9-1.6-1.5-2.4-2.6c-2.2-2.9-4.9-5.3-7.2-8.1c1,2.9,2.2,5.8,3.3,8.8
			c1.1,2.8,2.1,5.7,1.8,8.7c-0.3,3.1-1.9,5.7-3.9,8c-2.8,3.3-6.5,6.5-9.7,9.4c-1.9,1.7-3.1,3.3-5.5,4.5l-1.9,1l-1.8-1.1
			c-3.7-2.4-6.7-7.1-9.7-10.3c-0.9-1-1.7-2.2-2.6-3.1l-0.1-0.1l-11.5-13.1l0,0c-3.6-4.3-7.5-8.4-11.2-12.5c-2.2-2.4-4.4-4.9-6.6-7.3
			c-1.7-1.9-3.4-3.9-5-6l-1.2-1.5l0.1-0.2l0,0l-1.5-1.1c-3-2.2-6.2-5.2-5.4-9.3c0-0.1,0-0.2,0.1-0.3c-0.3,0-0.5-0.1-0.8-0.1
			c-6.8-1.4-10.9-9.7-8.4-16.1c2.2-5.5,5.6-12.1,9.3-16.7c1.8-2.3,3.6-4.7,5.4-7l0.1-0.1l11.8-12.8l13-11.4
			c9.8-8.2,27-19.4,39.6-21.7c2.9-0.6,5.7-0.4,8.2,1.3c1.3,0.9,2.2,2,3.3,3.2c1.8,2.2,2.8,4.1,2.8,6.7c0.3-0.1,0.6-0.1,1-0.2
			l1.4-0.2l1.2,0.9c1.9,1.4,4.8,4.6,5.5,6.9l0.2,0.5l0.2-0.1l1.6,1.4c2.4,2.1,4.2,4.6,6.3,6.9c1.9,2.2,3.7,4.3,5.7,6.4l35.9,40.5
			l-1.1,2.2c-2.5,4.8-18.1,16.4-23.4,17.2c-4.6,0.7-9.7-2.9-13.4-5.2c-1-0.6-3.1-2-5.2-2.9c0.1,0.1,0.1,0.1,0.1,0.1
			c1.4,1.6,2.9,3.1,4.2,4.7c2.6,3.2,5.4,6.2,8.2,9.3l16.8,18.9c6,6.3,11.7,12.9,17.5,19.4c2.8,3.2,5.6,6.4,8.5,9.6
			c2.8-3.2,5.6-6.4,8.5-9.6c5.7-6.5,11.5-13.1,17.5-19.4l16.8-18.9c2.7-3.1,5.6-6.1,8.2-9.3c1.3-1.6,2.8-3.2,4.2-4.7
			c0,0,0.1-0.1,0.1-0.1c-2,0.9-4.2,2.3-5.1,2.9c-3.7,2.3-8.8,5.9-13.4,5.2c-5.3-0.8-20.9-12.4-23.4-17.2l-1.1-2.2l35.9-40.5
			c1.9-2.1,3.8-4.3,5.7-6.4c2-2.3,3.9-4.8,6.2-6.9l1.6-1.4l0.2,0.1l0.2-0.5c0.7-2.3,3.6-5.5,5.5-6.9l1.2-0.9l1.4,0.2
			c0.3,0,0.7,0.1,1,0.2c-0.1-2.6,0.9-4.5,2.7-6.7c1-1.2,2-2.3,3.3-3.2c2.5-1.7,5.3-1.9,8.2-1.3c12.6,2.4,29.8,13.5,39.6,21.7
			l13,11.4l11.8,12.8l0.1,0.1c1.9,2.3,3.6,4.7,5.5,7c3.7,4.6,7.1,11.2,9.3,16.7c2.6,6.4-1.5,14.7-8.4,16.1c-0.3,0.1-0.5,0.1-0.8,0.1
			c0,0.1,0,0.2,0.1,0.3c0.9,4.1-2.4,7.1-5.4,9.3l-1.5,1.1l0,0l0.1,0.2l-1.2,1.5c-1.6,2-3.3,4-5,6c-2.2,2.5-4.4,4.9-6.6,7.3
			c-3.8,4.1-7.7,8.2-11.2,12.5l-0.1,0.1l-11.5,13l-0.1,0.1c-0.9,1-1.7,2.1-2.6,3.1c-3,3.2-6.1,8-9.7,10.3l-1.8,1.1l-1.9-1
			c-2.4-1.2-3.6-2.8-5.5-4.5c-3.3-2.9-6.9-6.1-9.7-9.4c-2-2.3-3.6-4.9-3.9-8c-0.3-3,0.7-5.9,1.8-8.7c1.1-2.9,2.3-5.8,3.3-8.8
			c-2.3,2.8-5,5.2-7.2,8.1c-0.8,1-1.6,1.7-2.5,2.6l-22.9,26.1l-0.1,0.1c-1.4,1.3-2.8,3-4.1,4.5c-2.2,2.5-4.5,5-6.7,7.6
			c-2.2,2.6-4.5,5.1-6.7,7.6c-1.4,1.6-2.9,3.3-4.4,4.8l-3,3.4l27.6,31.1c8.9,10.1,23.3,29.7,37.4,31.2c0.5,0.1,0.9,0,1.3-0.1
			c1.8-0.5,3.7-2.6,5-3.9c2.2-2.3,4.5-4.9,7.6-6.1l2.2-0.9l1.7,1.6c3.9,3.6,7.1,7.9,10.5,11.9c1.6,1.9,3.3,3.8,5,5.6
			c1.5,1.6,4.5,4.7,5.5,6.6l1.1,1.1c2,1.9,7,7.1,7.8,9.6l0.4,1.4c2,1.7,3.6,3.9,3.9,6.7l0.2,2.4l-2.1,1.1c-0.3,0.2-0.7,0.3-0.9,0.5
			c-0.1,0.2-0.2,0.3-0.3,0.5c-0.7,1.2-1.6,1.7-2.7,2.4c-0.8,0.6-1.4,1.2-2,1.9l-1.5,2l-0.7-0.2l-3.1,2.7l-2.2-1
			c-1.1-0.5-2.2-1.4-3.2-2.5c-0.1,0.7-0.2,1.3-0.3,2c-0.8,4.1-2.4,7.8-4.5,11.4c-3,5.2-8.1,9.8-13.4,12.5c-6,3.1-10,4-15.8,4.2
			c0.4,0.5,0.7,1,1,1.5c1.2,2,1.6,4.5-0.2,6.3c-0.5,0.5-1,0.9-1.6,1.1l-6.9,6.3l-0.3-0.1c-0.3,0.3-0.5,0.5-0.8,0.9l-1.9,2.4
			l-2.7-1.5c-1.7-1-3.3-2.7-4.5-4.3l-0.7,0.5l-2-1.7c-1.5-1.3-3.1-2.9-4.3-4.5c-1-1.3-2-2.2-3.1-3.4l-2.6-2.7l0.2-0.2
			c-1.1-1.1-2.3-2.4-3.2-3.5c-2.2-2.4-4.4-4.9-6.6-7.3c-2.2-2.5-4.4-5-6.5-7.5c-1.1-1.3-2.9-3.3-3.8-4.8l-1.3-2.4l1.9-2
			c3-3.2,6.4-5.8,9.6-8.7c0.3-0.3,1.1-0.9,1.4-1.3c0.1-0.5,0.1-2.1,0.1-2.6c-0.2-10.3-7.6-18.9-14.2-26.1l-4.3-4.9l-0.1,0
			c-4.3-5.2-8.7-10.2-13.1-15.2c-2.7-3.1-5.4-6.2-8.1-9.2c-1.8-2-3.7-4.2-5.7-6.1L239,214L233.8,208.2z M325,265.4
			c-3.6-1.2-7.4-0.6-10.6,1.4c-2.8,1.8-5.4,4.7-6.2,8c-2,7.5,2,15,9.5,17.1c5,1.5,9.9,0.4,13.5-3.5c1.1-1.2,2-2.5,2.6-3.9
			c0.9-2,1.4-4.2,1.4-6.4C335.2,271.6,330.9,267.4,325,265.4z M142.5,265.4c-5.8,2-10.1,6.2-10.2,12.6c0,2.2,0.5,4.4,1.4,6.4
			c2.9,6.4,9.2,9.4,16.1,7.4c7.5-2.2,11.5-9.6,9.5-17.1c-0.9-3.3-3.4-6.2-6.2-8C149.9,264.8,146.1,264.2,142.5,265.4z"/>
		<path class="st2" d="M217.1,78.2l-34.1-38.6c-1.9-2.1-3.8-4.3-5.7-6.5c-1.9-2.2-3.7-4.6-5.9-6.6l-0.9-0.8c-0.1,0-0.1,0-0.1,0
			c-1-0.5-1.6-1.2-1.9-2.3l-0.2-0.5c-0.4-1.4-2.9-4-4.1-4.9c-0.2,0-0.4,0.1-0.6,0.1c-1.2,0.3-2.3,0-3.2-0.8c-0.9-0.8-1.4-1.8-1.4-3
			c0.1-1.7-0.8-2.9-1.8-4.1c-0.8-0.9-1.6-1.9-2.6-2.6c-1.6-1.1-3.5-1.1-5.4-0.7c-12,2.3-28.6,13.1-37.8,20.9L98.5,39.1L86.9,51.6
			c-1.9,2.3-3.6,4.6-5.4,6.9C78,63,74.8,69.1,72.7,74.3c-1.7,4.3,1.1,10.1,5.6,11c0.2,0,0.4,0.1,0.5,0.1c1.1,0.2,2,0.7,2.6,1.6
			c0.6,0.9,0.8,2,0.5,3c0,0.1,0,0.1,0,0.1c-0.5,2.3,2.3,4.4,3.9,5.5l1.1,0.8c0.3,0.2,0.6,0.4,0.9,0.6c0.4,0.4,0.7,0.9,0.9,1.4
			l0.5,0.7c1.5,2,3.2,3.9,4.8,5.8c2.2,2.4,4.4,4.9,6.5,7.3c3.8,4.2,7.7,8.3,11.3,12.6l11.5,13c1,1,1.7,2.2,2.6,3.2
			c2.6,2.8,5.8,7.6,8.9,9.7c1.8-0.9,3.2-2.6,4.6-3.9c3.2-2.9,6.6-5.8,9.4-9c1.4-1.7,2.8-3.7,3-5.9c0.2-2.3-0.7-4.9-1.6-7
			c-1.1-2.9-2.3-5.9-3.4-8.8c-0.6-1.8-4.7-3.5-3.1-4.4c-4.2-6.2,4.1-6.7,5.3-5.2c2.4,2.8,9.4,11.3,11.6,14.2
			c0.6,0.8,1.4,1.5,2.2,2.2c0.1,0.1,0.1,0.1,0.2,0.2l22.8,25.9c1.6,1.5,2.9,3.1,4.4,4.7c2.2,2.5,4.5,5.1,6.7,7.6
			c2.2,2.6,4.5,5.1,6.7,7.6c1.4,1.6,2.7,3.1,4.3,4.6c0.1,0.1,0.1,0.1,0.2,0.2l3,3.4c1.3,1.4,1.3,3.6,0,5l-27.6,31.1
			c-9.9,11.1-24.1,30.7-39.9,32.5c-3.9,0.5-6.9-2.6-9.4-5.2c-1.7-1.8-3.9-4.2-6.2-5.2c-3.7,3.5-6.8,7.6-10.1,11.5
			c-1.7,2-3.3,3.9-5.1,5.8c-1.3,1.3-4.1,4.1-4.9,5.7c-0.2,0.4-0.5,0.7-0.8,1l-1.1,1.1c-1.4,1.4-6.2,6.3-6.8,8l-0.5,1.4
			c-0.2,0.7-0.6,1.2-1.1,1.7c-1.2,1-2.4,2.4-2.5,4.1c0.2,0.1,0.4,0.2,0.7,0.3c0.8,0.4,1.4,1,1.8,1.8c0,0,0,0.1,0.1,0.1
			c0.3,0.5,1.2,1,1.7,1.3c1.1,0.8,2,1.7,2.9,2.8l0.4,0.5c0.5,0.1,0.9,0.4,1.2,0.7l1.2,1c0.7-0.4,1.5-1.1,2-1.6c1-1.1,2.5-1.4,3.9-1
			c1.4,0.5,2.4,1.6,2.6,3.1c0.1,0.6,0.2,1.2,0.3,1.8c0.7,3.7,2.2,7,4.1,10.2c2.7,4.6,7.2,8.6,11.9,11.1c5,2.6,8.6,3.5,14.2,3.8
			c1.4,0.1,2.7,0.9,3.3,2.2c0.6,1.3,0.5,2.8-0.5,3.9c-0.3,0.3-0.5,0.7-0.7,1c-0.2,0.4-0.7,1.4-0.3,1.8c0.1,0,0.1,0.1,0.2,0.1
			c0.5,0.2,0.9,0.4,1.3,0.8l6.1,5.6c0.4,0.2,0.8,0.5,1.2,0.8c0.3,0.4,0.7,0.7,1,1.1c1.2-0.7,2.4-2.2,3.3-3.3
			c0.7-0.9,1.8-1.4,2.8-1.4l0.4-0.3c1.3-1.2,2.7-2.5,3.7-3.9c1-1.4,2.2-2.5,3.4-3.8l1.6-1.6c0.2-0.5,0.5-1,0.9-1.4
			c1.1-1.1,2.1-2.2,3.1-3.3c2.2-2.4,4.4-4.8,6.5-7.3c2.2-2.5,4.4-5,6.5-7.5c1-1.2,2.5-2.8,3.3-4.1c-2.9-3-6.2-5.6-9.4-8.4
			c-0.7-0.6-1.4-1.1-1.9-1.8c-0.3-0.4-0.5-0.7-0.6-1.2c-0.3-1.1-0.3-2.6-0.3-3.8c0.2-11.4,7.9-20.6,15.2-28.5l4.3-4.8
			c4.3-5.2,8.7-10.3,13.2-15.3c2.7-3.1,5.4-6.2,8.2-9.2c1.9-2.1,3.8-4.3,5.8-6.3l5.1-5.8c0.7-0.9,1.7-1.3,2.8-1.3
			c1.1,0,2.1,0.4,2.8,1.3l5.1,5.8c2,2,3.9,4.1,5.8,6.3c2.7,3,5.5,6.1,8.2,9.2c4.5,5,8.9,10.1,13.2,15.3l4.3,4.8
			c7.3,8,15,17.1,15.2,28.5c0,1.2,0.1,2.6-0.2,3.8c-0.1,0.4-0.3,0.8-0.6,1.2c-0.5,0.7-1.2,1.2-1.9,1.8c-3.1,2.8-6.5,5.4-9.4,8.4
			c0.8,1.4,2.3,2.9,3.3,4.1c2.1,2.5,4.3,5,6.5,7.5c2.2,2.5,4.3,4.9,6.5,7.3c1,1.1,2,2.3,3.1,3.3c0.4,0.4,0.7,0.9,0.9,1.4l1.6,1.6
			c1.2,1.2,2.4,2.4,3.4,3.8c1,1.4,2.4,2.7,3.7,3.9l0.4,0.3c1.1,0.1,2.1,0.5,2.8,1.4c0.9,1.1,2.1,2.5,3.3,3.3c0.3-0.4,0.7-0.7,1-1.1
			c0.4-0.3,0.8-0.6,1.2-0.8l6-5.6c0.4-0.4,0.8-0.6,1.3-0.8c0.1,0,0.1-0.1,0.2-0.1c0.4-0.4-0.1-1.4-0.3-1.8c-0.2-0.4-0.5-0.7-0.7-1
			c-0.9-1.1-1-2.6-0.5-3.9c0.6-1.3,1.8-2.1,3.3-2.2c5.6-0.3,9.1-1.2,14.1-3.8c4.7-2.5,9.2-6.5,11.9-11.1c1.8-3.2,3.3-6.6,4.1-10.2
			c0.1-0.6,0.2-1.2,0.3-1.8c0.2-1.4,1.2-2.6,2.6-3.1c1.4-0.5,2.9-0.1,3.9,1c0.5,0.5,1.3,1.3,2,1.6l1.2-1c0.4-0.3,0.8-0.6,1.3-0.7
			l0.4-0.5c0.8-1.1,1.7-2,2.9-2.8c0.5-0.3,1.3-0.8,1.6-1.3c0,0,0.1-0.1,0.1-0.1c0.4-0.9,1-1.4,1.8-1.8c0.2-0.1,0.4-0.2,0.7-0.3
			c-0.2-1.7-1.3-3-2.6-4.1c-0.5-0.5-0.9-1-1.1-1.7l-0.5-1.3c-0.7-1.8-5.4-6.6-6.8-8l-1.1-1.1c-0.3-0.3-0.5-0.6-0.7-1
			c-0.8-1.6-3.6-4.4-4.9-5.7c-1.8-1.9-3.5-3.8-5.1-5.8c-3.3-3.9-6.4-8-10.1-11.5c-2.3,1-4.5,3.4-6.2,5.2c-1.8,1.9-4,4.2-6.6,5
			c-0.9,0.3-1.8,0.4-2.8,0.3c-15.7-1.8-30-21.3-39.9-32.5L256.3,182c-1.3-1.4-1.3-3.6,0-5l3-3.4c0.1-0.1,0.1-0.1,0.2-0.2
			c1.5-1.5,2.9-3.1,4.2-4.6c2.3-2.5,4.5-5,6.7-7.6c2.2-2.5,4.5-5.1,6.7-7.6c1.4-1.6,2.8-3.2,4.4-4.7l22.8-25.9
			c0.1-0.1,0.1-0.1,0.1-0.2c0.7-0.7,1.5-1.4,2.2-2.2c2.2-2.9,8-10.1,10.3-13c1.2-1.4,3.2-1.8,4.8-0.9c1.6,0.9,2.3,2.8,1.7,4.6
			c-1,3-5.2,10.6-6.4,13.6c-0.8,2.1-1.8,4.7-1.6,7c0.2,2.3,1.6,4.2,3,5.9c2.8,3.3,6.2,6.2,9.4,9c1.5,1.3,2.9,3,4.6,3.9
			c3.1-2.1,6.3-6.9,8.9-9.7c0.9-1,1.7-2.2,2.7-3.2l11.5-13c3.6-4.3,7.5-8.4,11.3-12.6c2.2-2.4,4.4-4.8,6.5-7.3
			c1.7-1.9,3.3-3.8,4.9-5.8l0.5-0.7c0.2-0.5,0.5-1,0.9-1.4c0.3-0.3,0.5-0.5,0.9-0.6l1.1-0.8c1.6-1.1,4.4-3.2,3.9-5.5
			c0,0,0-0.1,0-0.1c-0.3-1-0.1-2.1,0.5-3c0.6-0.9,1.5-1.5,2.6-1.6c0.2,0,0.3-0.1,0.5-0.1c4.5-1,7.3-6.8,5.6-11
			c-2.1-5.2-5.2-11.3-8.8-15.7c-1.8-2.3-3.5-4.7-5.4-6.9l-11.6-12.5l-12.8-11.2C347,20.1,330.4,9.3,318.4,7
			c-1.9-0.4-3.7-0.4-5.4,0.7c-1,0.7-1.8,1.7-2.6,2.6c-1,1.2-1.9,2.4-1.8,4.1c0,1.2-0.5,2.3-1.4,3c-0.9,0.8-2.1,1-3.2,0.8
			c-0.2-0.1-0.4-0.1-0.6-0.1c-1.2,0.9-3.7,3.5-4.1,4.9l-0.2,0.5c-0.3,1-1,1.8-1.9,2.3c0,0-0.1,0-0.1,0l-0.9,0.8
			c-2.2,1.9-4,4.4-5.9,6.6c-1.9,2.2-3.8,4.4-5.7,6.5l-34.1,38.6c2.1,3.8,16.5,14.5,20.6,15.1c3.2,0.5,8.2-3.1,10.8-4.7
			c1.8-1.1,3.6-2.3,5.6-3.1c1.6-0.7,6.7-2.7,7.7-1.2c1.1,1.4,2.6,6.1-1.8,8.1c0,0.1-0.8-0.3-0.8-0.3c-1.4,1.5-2.7,2.7-4,4.3
			c-7.8,9.5-17.8,18.9-26,28.1c0,0-0.1,0.1-0.1,0.1c-6,6.3-11.7,12.8-17.4,19.2c-2.8,3.2-5.7,6.4-8.5,9.6c-0.7,0.8-1.7,1.3-2.8,1.3
			c-1.1,0-2.1-0.5-2.8-1.3c-2.8-3.2-5.6-6.4-8.5-9.6c-5.8-6.5-11.4-13-17.4-19.2c0,0-0.1-0.1-0.1-0.1l-16.8-18.9
			c-2.8-3.1-5.6-6.2-8.3-9.4c-1.3-1.6-2.7-3.1-4.1-4.6c0,0-0.1-0.1-0.1-0.1c-1.2-1.4-6.8-5-5.7-6.4c1-1.4,8.4-0.3,10.1,0.5
			c2,0.9,3.8,2,5.6,3.1c2.6,1.6,7.6,5.2,10.8,4.7C200.5,92.7,215,82,217.1,78.2z M326.3,261.8c7.4,2.5,12.7,8.1,12.8,16.2
			c0,2.8-0.6,5.6-1.8,8.1c-0.8,1.8-2,3.5-3.3,4.9c-4.6,4.9-11,6.4-17.3,4.6c-9.5-2.7-14.6-12.3-12.1-21.7c1.1-4.2,4.2-7.9,7.9-10.2
			C316.6,261,321.5,260.3,326.3,261.8z M141.3,261.8c4.7-1.6,9.6-0.8,13.8,1.8c3.7,2.3,6.8,6,7.9,10.2c2.5,9.5-2.6,19-12.1,21.7
			c-8.6,2.5-16.9-1.4-20.6-9.5c-1.2-2.5-1.8-5.3-1.8-8.1C128.6,269.9,133.9,264.3,141.3,261.8z"/>
		<g>
			<path class="st3" d="M213.2,79.6l-41.5-47.5l-5.8-2.2l-3.1-7.2l-7.7-4.3l-0.7-6.7L146,9.5l-19,8.6l2.9,7.4l8.9,9.4l5.3,4.1
				l-3.8,2.9l9.6,4.8l25.4,30c0,0,6.9,5.3,9.6,6c2.6,0.7,15.6,3.6,15.6,3.6S213.7,79.6,213.2,79.6z"/>
			<path class="st3" d="M135,62c0,0,11.5,19.9,14.9,19.4c3.3-0.5-9.4,11.3-17.8,3.3S128,64.9,135,62z"/>
			<path class="st3" d="M168,99.8l36.4,28.7l-13.5,6.9C190.8,135.5,169.7,101.4,168,99.8z"/>
			<path class="st3" d="M337.3,239.5l3.7-0.4l19.2,23.9l9,10.2l-7.6,5.1l-7.7-5.3l-1.8-5.5l-4.1-0.2l-3.7-5.7l-12.3-13.5l-2.6-2.9
				C329.5,245.1,337.2,239.5,337.3,239.5z"/>
			<path class="st3" d="M303.5,262l-0.2,12.7c-1.3,8.2-0.5,15.4,7.8,20.2c14,9.3,19.5,0.1,26.1-4.3l5.3,2.6c0,0-11.6,9.2-19.6,9.8
				c-8,0.6-11.9,5.3-11.9,5.3l-5.3-5.5l-10.4-23.9C295.3,278.8,299.4,264.7,303.5,262z"/>
			<path class="st3" d="M288.1,232.3c1,1.7,17.3,22.9,17.3,22.9l14-2.9C319.4,252.3,288.3,231.8,288.1,232.3z"/>
		</g>
		<g>
			<path class="st3" d="M253.6,79l41.5-47.5l5.8-2.2l3.1-7.2l7.7-4.3l0.7-6.7l8.4-2.2l19,8.6l-2.9,7.5l-8.9,9.4l-5.3,4.1l3.8,2.9
				l-9.6,4.8l-25.5,30c0,0-6.9,5.3-9.6,6c-2.7,0.7-15.6,3.6-15.6,3.6S253.1,79,253.6,79z"/>
			<path class="st3" d="M331.8,61.5c0,0-11.5,19.9-14.9,19.4c-3.4-0.5,9.4,11.3,17.7,3.4C343.1,76.4,338.8,64.4,331.8,61.5z"/>
			<path class="st3" d="M298.8,99.2L262.4,128l13.5,6.9C275.9,134.9,297.1,100.9,298.8,99.2z"/>
			<path class="st3" d="M129.4,238.9l-3.7-0.4l-19.2,23.9l-9,10.2l7.6,5.1l7.7-5.3l1.8-5.5l4.1-0.2l3.7-5.7l12.3-13.5l2.6-2.9
				C137.3,244.6,129.6,238.9,129.4,238.9z"/>
			<path class="st3" d="M163.3,261.4l0.2,12.7c1.3,8.2,0.5,15.5-7.8,20.2c-14,9.3-19.5,0.1-26-4.3l-5.3,2.6c0,0,11.6,9.2,19.6,9.8
				c8,0.6,11.9,5.3,11.9,5.3l5.3-5.5l10.4-23.9C171.5,278.3,167.4,264.2,163.3,261.4z"/>
			<path class="st3" d="M178.7,231.8c-1,1.7-17.3,22.9-17.3,22.9l-14-2.9C147.3,251.8,178.5,231.3,178.7,231.8z"/>
		</g>
		<g>
			<path class="st4" d="M296.7,308.9c1.4-0.5,1.4-0.7,2.2-2.1l-15.1-16.9l-2.1,1.6C282.2,293.1,295.6,308.2,296.7,308.9z M92.9,80.5
				c-1.1,1.7-1.7,3.7-3.2,4.9l-1.9-1.5l3.4-5.3L92.9,80.5z M142.9,63.4c-6.5-2.2-12.4,2.7-13.7,7.6c-1.8,6.7,1.8,12.1,7.7,13.8
				C150.5,88.7,157.3,68.2,142.9,63.4z M153.6,77.5c-1.5,6.7-8.6,12.2-17.2,10.3c-17.7-3.9-11.5-32.1,6.7-27.4
				C149.9,62.1,155.6,68.9,153.6,77.5z M148.2,70.7c-1.6-5.1-8.5-7.9-13.8-4.1c-5,3.6-5.2,11.5,0.1,14.7c-1.3-2.8-4.8-8.4,1-13
				C140.2,64.5,145.3,67.2,148.2,70.7z M143.1,64.5c13.2,5.1,6,22.9-6.3,19.4C123.5,80,130.5,59.6,143.1,64.5z M372.4,276
				c-1.2,0.7-1,0.8-2.6,0.1c1,3.5-1.4,2.1-4.5,6.3c-1.4-0.4-1.6-0.3-2.2-1.4c0.2,1.3,0.5,0.7,0.6,2.6l-1.4,1.2
				c-1.4-0.7-3.3-3-4.3-4.5l10.7-9.4C370.1,271.9,372.2,273.6,372.4,276z M318.1,315.4c5.2,4.5,4.5,7.3,0.9,5l0.5,2.2l-4.7,4.3
				c-1.9-0.5-0.9-0.2-2.2-1.1c1.4,2.5,0.9,1.7-0.6,3.6c-1.6-0.9-3.3-3.1-4.3-4.5C308.8,323,315.9,317.4,318.1,315.4z M326.2,262.5
				c-9.9-3.3-19.5,4.1-21.5,11.9c-2.8,10.5,3.7,19.1,12,21.5C337.6,302,349.3,270.3,326.2,262.5z M341.5,283.9
				c-1.1,5.2-4.5,9.2-8.4,12c-14,10.3-36.3-2-31.5-21.7c2.4-9.9,12.6-18,24.6-15C336.2,261.8,344.2,271.3,341.5,283.9z M306,319.4
				l2.3-1.5l-2.7-3.7L303,316C303.6,317.4,304.8,318.5,306,319.4z M311.3,314.9c0.2-0.3,1,0.8,0.3-1.2c-0.1-0.3-0.7-0.9-1-1.2
				c-1.4-1.5-1-1.9-2.6-0.8C308.5,312.9,310.1,315.1,311.3,314.9z M341.5,297.6c4.1-5.1,7.1-10.1,6.7-18.2
				c-1.5,8.7-4.4,14.8-9.5,19.3c-4.3,3.7-12.2,7.5-20.2,6.6C326.5,307.2,336.6,303.8,341.5,297.6z M357.3,268.2
				c-0.6,0.4-0.8,0.6-1.4,1.1c-1,0.9-0.5,0.4-1.1,1.3l2.6,3.3c1.6-0.7,2.2-1.3,2.8-2.6L357.3,268.2z M337.6,308.2
				c-6.5,3.4-9.8,3.9-18.4,3.9c-1.1,1.6-2.1,2-3.5,3.2c-1.3,1.1-1.9,2-3.3,3.1c-2.6,2-4.4,4.3-7.1,5.9c-1.2-1.1-2.7-2.5-3.7-3.9
				c-1.2-1.7-2.1-2.4-3.4-3.8l18.6-16.4c8.4,1.4,13.9-0.7,19-4.8c5.8-4.8,6.6-9.2,7.5-18.7l13.7-12.1c1.1-1.1,3.5-3.2,4.6-3.9
				c1.3,1.3,6.3,6.5,6.9,8.1L356,279.7c-3.5,2.9-0.1,6.4-6.4,17.4C346.7,301.9,342.1,305.9,337.6,308.2z M301.9,304.3
				c0.1-0.1,1.8,0.4-0.7-2.4c-0.7-0.7-1.3-1.5-1.9-2.2l-11.6-12.8c-0.4-0.2-0.4-0.1-0.7,0c-0.2,0.4-0.9-0.8-0.1,1.1l2.9,3.4
				c1.5,1.6,2.6,2.9,4,4.6C295.6,297.7,300.8,304.5,301.9,304.3z M343.8,264.8c-1.4-5.2-10.3-12-18.8-12.2c1.6,1,3.7,1.4,5.7,2.2
				C338.6,258.5,338.2,259.2,343.8,264.8z M350.9,260.9c-1.6-2.1-13.6-16-15.3-17.1l-2.4,2.4c0.9,1.9,6.1,7.2,7.5,8.9
				c2.5,2.9,4.9,5.6,7.4,8.3C349.1,262.7,350.2,262,350.9,260.9z M354.1,258.6c-0.7-1.6-2.6-3.9-3.7-5l-5.8-6.4
				c-1.3-1.6-4.4-5.7-6.1-6.3c0.4,1.8,0.3,1.2,1.7,2.6l11.5,12.9C352.6,257.6,352.5,257.6,354.1,258.6z M176.9,125.5
				c-1.1-1.2-2.6-2.7-3.5-3.8l-16.8-17.8l-1.9,0.8c1.3,2.6,4.2,5,5.6,6.7l123.2,138.8c4.9,5.6,9.2,11.3,9.2,21.3
				c1.8-7.1,2.3-8.6,5.9-13.9l-22.2-25.5c-1.6-1.7-2.9-3.4-4.5-5l-8.7-9.7c0.7,1,2.2,2.7,2.9,3.7L285,243c1.1,1.6,2.1,2.1,3.1,3.5
				L176.9,125.5z M315.8,250.1c-0.1-0.1-0.3-0.1-0.3-0.2l-0.7-0.3c-4.2-1.3-4.2-0.2-10.4-4.5c-4.6-3.2-18-19.4-22.9-24.7
				c-5.1-5.5-10-11.3-14.9-16.8l-90.9-102.3c-1.9-2.2-5.4-6.6-7.5-8.2l-1.3,1.5c0.5,1.4,7.7,9.7,9.1,11.2l47.8,55.3
				c7.9,9,28.1,32.9,35.7,41.1l30.7,36.7c-2.9-2.3-11.2-12.4-12.9-13.7c0.8,1.8,23.3,26.9,25.1,28.9c2.1-0.4,3.6-1.9,6.1-2.7
				C310.5,250.9,313.8,250.9,315.8,250.1z M148.1,50.3c-3.2-2.1-4.9,0.6-8.1,3.4l-19.6,17.4c-1.6,1.5-5.8,4-5.6,7
				c0.2,2,1.2,2.6,2.4,3.9c15.7,16.3,13.1,20.9,22.5,12.4c2.3-2,4.2-3.7,6.4-5.8c4.5-4,8.8-7.6,13.2-11.7c1.5-1.3,5.8-3.9,5.6-6.8
				C164.7,67.4,149.7,51.4,148.1,50.3z M85.1,72.3c-0.6,0.3-0.3,0-1,0.9l-2.2,3.3c-1.2-0.9-2-2-3.4-2.7l-1.4,4.5
				c1.9,2.9,1.7,2.6,5.5,2.5c5-9.5,9.6-13.9,12.5-18.7c-5.1,4.1-10.5,14.9-12.6,15.6L85.1,72.3z M139.6,100.7c-5.5,4.4-8.5,2-12-2.3
				l-13.5-15.4c-1.6-1.8-3-3.3-2.1-7.2c1.1-4.3,26.8-23.7,29.5-27.7l-2.5-2.9c-1.7,0.6-2.1,1.2-3.5,2.4c-1,0.8-2.2,1.5-3.4,2.4
				c-10.7,8.2-20.8,18.5-28.9,29.3l-7.3,10.6c-1.1,1.9-1.2,1.8-0.5,3.6c2.1,5.2-1.6,3.8,2.4,8.2l32.5,36.7c1.6,1.9,3.5,4.2,5.4,5.9
				l2.9-2.9c-0.6-1.4-9.1-10.8-10.7-12.4c-1.2-1.2-1.6-2-2.7-3.2l-13.5-15c-1.1-1.2-1.5-2.1-2.6-3.3l-13.2-15c0.6-2,1.5-3.9,2.7-5.3
				c0.1,0.1,0.2,0.1,0.3,0.2L121,112c1.3,1.2,1.6,1.9,2.7,3.2l5.6,6.1c2.1,2.1,12,14.4,14,15.5c4.6-5.8-12-21.1-5.2-32.6
				c2.7-4.6,7.2-7.9,10.8-11l11.5-10.4c-1.7,0.8-4.2,3.3-5.6,4.6L139.6,100.7z M187.2,79.5c-1.6-2.5-15.1-16.7-18.4-20.9
				c-5.8-7.1-12.3-13.6-18.1-20.7c-2,0.5-7.8,4.5-9.4,5.7l5.1-2.4c1.3,0.9,1.4,1.3,2.4,2.6c0.9,1.2,1.4,1.5,2.4,2.6
				c0.9,1,1.3,1.7,2.2,2.7c0.9,1,1.6,1.5,2.4,2.6l18.4,20.9c4.7,4.6,1.7,1.5,6.5,3.7C183.2,77.3,184.9,78.7,187.2,79.5z M131.3,35.7
				c-2.8,1.2-12.9,10-16.1,12.7c-1,0.9-1.6,1.6-2.8,2.7c-3.5,3.1-5.9,6.1-8.5,8.8l-7.9,9.5c-2,2.7-8.3,11.1-9.1,14
				c1.2,2,1.6,2.2,1.8,5.3l2,0.3c2.3-3.5,3.7-6.3,6-9.6l-0.5-0.5c-1.7,2.3-4.9,6.6-6.1,9.2c-0.9-5.1,22.1-33.4,30.1-39.2l12.9-9.9
				C131.6,36.6,131.6,37.5,131.3,35.7z M170.7,33.6c-4.5-0.2-3.9,0.2-7.3-1.8c-2,0.4-7.8,3.3-9.3,4.4c2.8-0.7,4.9-2.6,8.4-2.6
				l10.8,12.2c8.5,10.5,21,23.2,29.7,33.7c1,1.3,1.1,1.8,2.8,2.8c1.6-1.2,2.6-2,4.3-3.5c-0.7-1.8-7.9-9.4-9.7-11.5l-20-22.6
				C176.9,40.8,173.7,37.4,170.7,33.6z M85.1,72.3c1.2-0.8,1.6-2,2.2-3.1c3.9-7,15.3-20.6,21.2-25.4c1.2-1,1.6-1.6,2.7-2.7l8.6-6.7
				c2-1.6,3.6-2.7,5.8-4.1c-1.2-1.2-1.7-2.3-3.2-3.5c-5.4,2.4-17.1,13.7-22,18.5c-1.3,1.3-1.6,1.3-2.8,2.6c-0.9,1-1.6,1.9-2.4,2.7
				c-1.6,1.8-3.1,3.4-4.7,5.3c-2.9,3.5-6.1,7.6-8.4,11.9C83.1,69.6,84.6,70.5,85.1,72.3z M131.3,35.7c9.1-4.8,4.9-4.6,9.6-1.2
				l4.6-2.1l-2.1-3.2c7.7-2.5,9.5-7.4,12.3-2.8c-1.7,1.8-5.1,2.5-6.9,4.2l11.1-4.2c-3.8,1.5-8.4,4.5-12,6.5c-1.7,1-2.5,1.1-3.5,2.4
				c4.3-1.6,9.7-5.6,16.4-7.8V25c-3.4-0.3-4.2-1.3-6-2.7l-12.4,6.2C139.2,30,133,33.5,131.3,35.7z M137.5,23.3
				c-1.1-1.5-1.9-2.9-3.8-4l-4.1,2.6l3.3,3.5C134.5,24.9,136.1,23.9,137.5,23.3z M154,14.8c-3.7-4.2-3.2-2.4-8.7-1.1
				c0.9,2,1.5,2,2.9,3.7c-2.4,1.4-5.4,2.8-7.7,4.3l11.6-4.2c-5.7,4-2.4,1.6-7.2,3.9c-2.4,1.1-4.8,2.4-7.1,3.6
				c-2.3,1.3-4.9,2.9-6.9,4.3c-1.2,0.8-1.9,1.2-3.2,2.2c-1.6,1.2-2.1,1.2-3.1,2.5c2.2-0.9,5.3-2.9,7.5-4.3c2.2-1.4,4.8-2.9,7.1-4.1
				l14.5-7.7L154,14.8z M163.1,123.5c-0.9-0.9-1.4-1.2-2.2-2.3c-2.7-3.5-5.7-6-8.2-9.4c-1.1-1.5-2.7-3.5-4.5-4.3
				c-1.6,2.1-3,2.2-1.8,6.1c6.4,20.2,11.7,17.7-6.5,33.9c-1.8,1.6-2.8,3-4.7,4c-2.8-1.8-6.5-7.1-9-9.8c-1-1.2-1.5-2-2.6-3.2
				l-11.5-13c-5-6-18.2-19.8-22.7-25.7c1-2.9,3.1-2.6,0.2-5.7c-1.7,0.7-1.8,1.5-3.6,2.1c-6.9-5-2.9-6.1-2.7-9.4
				c-1.9-1.7-1.8-0.3-4.8-0.9c-4.3-0.9-7.6-6.6-5.8-11.2c2.1-5.2,5.6-11.8,8.8-15.8c2-2.6,3.5-4.6,5.4-6.9l11.6-12.6l12.8-11.2
				c9.2-7.7,26.1-18.7,38-21c4.5-0.9,6,1,8.1,3.3c3.7,4.3,0.7,5.4,1.8,8.6c2,0.8,2.4-0.5,5.2-0.8c1.3,0.9,3.7,3.6,4.2,5
				c-1.1,2.1-1.8,1.1-2,3.5c1.9,2.9,2.7,0.9,5,0.1c2,1.8,4.2,4.6,5.9,6.6c2,2.3,3.7,4.3,5.7,6.5l34.2,38.6
				c-1.9,3.7-16.6,14.7-20.7,15.3c-6.7,1-18.6-14-24.7-7.2c0.6,1.6,6.6,7.8,8.2,9.8c2.6,3.2,5.5,6.2,8.3,9.4l16.8,19
				c7.3,7.7,27.6,30.9,34.6,38.8l44.2,49.9c9.8,11.3,24.1,30.6,39.8,32.4c6.6,0.7,10.3-8.2,15.6-10.4c3.7,3.4,7,7.8,10.2,11.6
				c1.6,1.9,3.4,3.9,5.1,5.8c1,1.1,4.4,4.7,4.9,5.8c-2.1,2.2-15.1,14.1-17.2,14.9c-2.2-7.2-6.6-12.3-14.1-14.9
				c-8.1-2.8-15.3-0.2-21.3,4.4c-4.8,3.7-8.8,12.8-6.7,21.1c1,3.9,2.6,6.7,4.9,9.4c2.9,3.4,5.3,3.5,8.2,5.9
				c-2.4,2.5-5.8,5.2-8.5,7.7c-2,1.8-6.2,6.3-8.6,7.2c-2-1.7-19-21-20.2-23c3-3.2,6.3-5.7,9.4-8.5c2.4-2.1,2.7-2.3,2.6-6.6
				c-0.2-11.5-8-20.6-15.2-28.5l-4.3-4.8c-5.1-6.2-22.3-25.9-27.2-30.8l-33.5-37.9c-3.2-3.1-18.9-21.6-22.1-24.6L163.1,123.5z"/>
			<path class="st4" d="M170.9,308.9c-1.4-0.5-1.4-0.7-2.2-2.1l15.1-16.9l2.2,1.6C185.3,293.1,172,308.2,170.9,308.9z M374.7,80.5
				c1.1,1.7,1.7,3.7,3.2,4.9l1.9-1.5l-3.4-5.3L374.7,80.5z M324.6,63.4c6.5-2.2,12.4,2.7,13.7,7.6c1.8,6.7-1.8,12.1-7.7,13.8
				C317.1,88.7,310.2,68.2,324.6,63.4z M313.9,77.5c1.5,6.7,8.6,12.2,17.2,10.3c17.7-3.9,11.5-32.1-6.7-27.4
				C317.7,62.1,312,68.9,313.9,77.5z M319.4,70.7c1.7-5.1,8.5-7.9,13.8-4.1c5,3.6,5.2,11.5-0.1,14.7c1.3-2.8,4.8-8.4-0.9-13
				C327.3,64.5,322.3,67.2,319.4,70.7z M324.4,64.5c-13.2,5.1-6,22.9,6.3,19.4C344.1,80,337.1,59.6,324.4,64.5z M95.2,276
				c1.3,0.7,1,0.8,2.6,0.1c-1,3.5,1.4,2.1,4.5,6.3c1.4-0.4,1.5-0.3,2.2-1.4c-0.2,1.3-0.5,0.7-0.6,2.6l1.4,1.2c1.4-0.7,3.4-3,4.4-4.5
				L99,270.8C97.5,271.9,95.4,273.6,95.2,276z M149.4,315.4c-5.2,4.5-4.5,7.3-0.9,5l-0.4,2.2l4.7,4.3c2-0.5,0.9-0.2,2.3-1.1
				c-1.4,2.5-0.9,1.7,0.6,3.6c1.6-0.9,3.3-3.1,4.3-4.5C158.8,323,151.6,317.4,149.4,315.4z M141.3,262.5c9.9-3.3,19.5,4.1,21.5,11.9
				c2.7,10.5-3.7,19.1-12,21.5C129.9,302,118.3,270.3,141.3,262.5z M126.1,283.9c1.1,5.2,4.5,9.2,8.4,12c14,10.3,36.3-2,31.6-21.7
				c-2.4-9.9-12.7-18-24.6-15C131.3,261.8,123.3,271.3,126.1,283.9z M161.6,319.4l-2.3-1.5l2.7-3.7l2.5,1.8
				C164,317.4,162.7,318.5,161.6,319.4z M156.3,314.9c-0.2-0.3-1,0.8-0.3-1.2c0.1-0.3,0.8-0.9,1-1.2c1.4-1.5,1-1.9,2.6-0.8
				C159,312.9,157.5,315.1,156.3,314.9z M126.1,297.6c-4-5.1-7.1-10.1-6.7-18.2c1.5,8.7,4.4,14.8,9.5,19.3
				c4.3,3.7,12.2,7.5,20.2,6.6C141.1,307.2,131,303.8,126.1,297.6z M110.3,268.2c0.6,0.4,0.8,0.6,1.4,1.1c1,0.9,0.5,0.4,1.1,1.3
				l-2.7,3.3c-1.5-0.7-2.2-1.3-2.8-2.6L110.3,268.2z M130,308.2c6.4,3.4,9.8,3.9,18.4,3.9c1.1,1.6,2,2,3.5,3.2
				c1.3,1.1,1.8,2,3.3,3.1c2.6,2,4.4,4.3,7.1,5.9c1.2-1.1,2.7-2.5,3.7-3.9c1.2-1.7,2.1-2.4,3.4-3.8l-18.7-16.4
				c-8.4,1.4-13.9-0.7-19-4.8c-5.8-4.8-6.6-9.2-7.4-18.7l-13.7-12.1c-1.1-1.1-3.4-3.2-4.6-3.9c-1.4,1.3-6.3,6.5-6.9,8.1l12.3,10.9
				c3.4,2.9,0,6.4,6.4,17.4C120.8,301.9,125.5,305.9,130,308.2z M165.6,304.3c-0.1-0.1-1.8,0.4,0.8-2.4c0.7-0.7,1.2-1.5,1.9-2.2
				l11.5-12.8c0.4-0.2,0.4-0.1,0.7,0c0.2,0.4,0.9-0.8,0.1,1.1l-2.9,3.4c-1.5,1.6-2.6,2.9-4.1,4.6C172,297.7,166.8,304.5,165.6,304.3
				z M123.7,264.8c1.4-5.2,10.3-12,18.8-12.2c-1.6,1-3.7,1.4-5.7,2.2C128.9,258.5,129.4,259.2,123.7,264.8z M116.7,260.9
				c1.6-2.1,13.7-16,15.3-17.1l2.5,2.4c-0.9,1.9-6.1,7.2-7.5,8.9c-2.5,2.9-5,5.6-7.5,8.3C118.4,262.7,117.3,262,116.7,260.9z
				 M113.5,258.6c0.7-1.6,2.6-3.9,3.7-5l5.8-6.4c1.3-1.6,4.3-5.7,6.1-6.3c-0.4,1.8-0.3,1.2-1.7,2.6l-11.5,12.9
				C114.9,257.6,115.1,257.6,113.5,258.6z M290.7,125.5c1.1-1.2,2.6-2.7,3.5-3.8l16.8-17.8l1.9,0.8c-1.3,2.6-4.2,5-5.6,6.7
				L184,250.3c-4.8,5.6-9.2,11.3-9.2,21.3c-1.9-7.1-2.3-8.6-5.9-13.9l22.2-25.5c1.6-1.7,2.9-3.4,4.5-5l8.8-9.7
				c-0.7,1-2.2,2.7-2.9,3.7L182.5,243c-1.1,1.6-2,2.1-3.1,3.5L290.7,125.5z M151.8,250.1c0.1-0.1,0.3-0.1,0.3-0.2l0.7-0.3
				c4.2-1.3,4.2-0.2,10.4-4.5c4.7-3.2,18.1-19.4,22.9-24.7c5.1-5.5,10-11.3,14.9-16.8l90.9-102.3c1.9-2.2,5.4-6.6,7.5-8.2l1.3,1.5
				c-0.5,1.4-7.7,9.7-9.1,11.2l-47.8,55.3c-7.9,9-28.1,32.9-35.7,41.1L177.5,239c2.9-2.3,11.1-12.4,12.9-13.7
				c-0.8,1.8-23.3,26.9-25.1,28.9c-2.1-0.4-3.6-1.9-6.1-2.7C157,250.9,153.7,250.9,151.8,250.1z M319.5,50.3
				c3.2-2.1,4.8,0.6,8.1,3.4l19.6,17.4c1.6,1.5,5.8,4,5.6,7c-0.1,2-1.2,2.6-2.4,3.9c-15.7,16.3-13.1,20.9-22.5,12.4
				c-2.3-2-4.2-3.7-6.4-5.8c-4.5-4-8.7-7.6-13.2-11.7c-1.5-1.3-5.8-3.9-5.6-6.8C302.9,67.4,317.8,51.4,319.5,50.3z M382.5,72.3
				c0.6,0.3,0.3,0,1,0.9l2.2,3.3c1.2-0.9,2-2,3.4-2.7l1.4,4.5c-1.9,2.9-1.7,2.6-5.5,2.5c-5-9.5-9.7-13.9-12.5-18.7
				c5.1,4.1,10.5,14.9,12.6,15.6L382.5,72.3z M328,100.7c5.5,4.4,8.5,2,12-2.3l13.5-15.4c1.6-1.8,3-3.3,2.1-7.2
				c-1-4.3-26.8-23.7-29.5-27.7l2.5-2.9c1.8,0.6,2.1,1.2,3.5,2.4c1,0.8,2.2,1.5,3.4,2.4c10.7,8.2,20.8,18.5,28.8,29.3l7.3,10.6
				c1.1,1.9,1.2,1.8,0.5,3.6c-2.1,5.2,1.6,3.8-2.4,8.2l-32.5,36.7c-1.7,1.9-3.5,4.2-5.4,5.9l-2.9-2.9c0.6-1.4,9.1-10.8,10.7-12.4
				c1.2-1.2,1.6-2,2.7-3.2l13.5-15c1.1-1.2,1.5-2.1,2.6-3.3l13.2-15c-0.6-2-1.5-3.9-2.8-5.3c-0.1,0.1-0.2,0.1-0.3,0.2L346.6,112
				c-1.3,1.2-1.6,1.9-2.6,3.2l-5.7,6.1c-2.1,2.1-12,14.4-14,15.5c-4.6-5.8,12-21.1,5.3-32.6c-2.7-4.6-7.2-7.9-10.8-11l-11.5-10.4
				c1.7,0.8,4.2,3.3,5.6,4.6L328,100.7z M280.3,79.5c1.6-2.5,15-16.7,18.4-20.9c5.8-7.1,12.3-13.6,18-20.7c2,0.5,7.8,4.5,9.4,5.7
				l-5.1-2.4c-1.3,0.9-1.4,1.3-2.4,2.6c-0.9,1.2-1.4,1.5-2.4,2.6c-0.9,1-1.3,1.7-2.2,2.7c-0.9,1-1.6,1.5-2.5,2.6l-18.4,20.9
				c-4.7,4.6-1.7,1.5-6.4,3.7C284.4,77.3,282.6,78.7,280.3,79.5z M336.2,35.7c2.8,1.2,12.9,10,16.1,12.7c1,0.9,1.6,1.6,2.8,2.7
				c3.5,3.1,5.8,6.1,8.5,8.8l7.9,9.5c2,2.7,8.3,11.1,9.1,14c-1.2,2-1.6,2.2-1.9,5.3l-2,0.3c-2.4-3.5-3.7-6.3-6-9.6l0.5-0.5
				c1.7,2.3,4.8,6.6,6.1,9.2c1-5.1-22.1-33.4-30.1-39.2l-13-9.9C336,36.6,335.9,37.5,336.2,35.7z M296.9,33.6
				c4.5-0.2,3.9,0.2,7.3-1.8c2,0.4,7.8,3.3,9.3,4.4c-2.7-0.7-4.9-2.6-8.4-2.6l-10.7,12.2c-8.6,10.5-21,23.2-29.7,33.7
				c-1.1,1.3-1.1,1.8-2.8,2.8c-1.7-1.2-2.6-2-4.3-3.5c0.7-1.8,7.9-9.4,9.7-11.5l20-22.6C290.6,40.8,293.9,37.4,296.9,33.6z
				 M382.5,72.3c-1.2-0.8-1.6-2-2.2-3.1c-3.9-7-15.3-20.6-21.2-25.4c-1.2-1-1.6-1.6-2.7-2.7l-8.6-6.7c-2-1.6-3.7-2.7-5.8-4.1
				c1.2-1.2,1.7-2.3,3.2-3.5c5.4,2.4,17.1,13.7,22,18.5c1.4,1.3,1.7,1.3,2.8,2.6c0.9,1,1.6,1.9,2.3,2.7c1.6,1.8,3.1,3.4,4.7,5.3
				c2.9,3.5,6.1,7.6,8.4,11.9C384.5,69.6,383,70.5,382.5,72.3z M336.2,35.7c-9.1-4.8-4.9-4.6-9.6-1.2l-4.6-2.1l2.1-3.2
				c-7.7-2.5-9.5-7.4-12.3-2.8c1.6,1.8,5.1,2.5,6.9,4.2l-11.1-4.2c3.8,1.5,8.4,4.5,12,6.5c1.7,1,2.5,1.1,3.5,2.4
				c-4.3-1.6-9.7-5.6-16.4-7.8l0-2.4c3.4-0.3,4.2-1.3,6-2.7l12.4,6.2C328.4,30,334.6,33.5,336.2,35.7z M330,23.3
				c1.1-1.5,1.9-2.9,3.8-4l4.1,2.6l-3.3,3.5C333,24.9,331.4,23.9,330,23.3z M313.6,14.8c3.7-4.2,3.2-2.4,8.7-1.1
				c-0.9,2-1.5,2-2.9,3.7c2.4,1.4,5.4,2.8,7.7,4.3l-11.5-4.2c5.6,4,2.3,1.6,7.2,3.9c2.4,1.1,4.8,2.4,7.1,3.6
				c2.3,1.3,4.8,2.9,6.9,4.3c1.2,0.8,1.9,1.2,3.2,2.2c1.6,1.2,2.1,1.2,3,2.5c-2.2-0.9-5.3-2.9-7.5-4.3c-2.2-1.4-4.8-2.9-7.1-4.1
				l-14.5-7.7L313.6,14.8z M304.4,123.5c0.9-0.9,1.4-1.2,2.2-2.3c2.7-3.5,5.7-6,8.2-9.4c1.1-1.5,2.7-3.5,4.5-4.3
				c1.6,2.1,3,2.2,1.8,6.1c-6.4,20.2-11.7,17.7,6.5,33.9c1.8,1.6,2.8,3,4.8,4c2.8-1.8,6.5-7.1,9-9.8c1-1.2,1.6-2,2.7-3.2l11.5-13
				c5-6,18.2-19.8,22.8-25.7c-1-2.9-3.1-2.6-0.2-5.7c1.6,0.7,1.8,1.5,3.6,2.1c6.8-5,2.9-6.1,2.7-9.4c1.9-1.7,1.8-0.3,4.8-0.9
				c4.3-0.9,7.6-6.6,5.7-11.2c-2.1-5.2-5.6-11.8-8.8-15.8c-2.1-2.6-3.5-4.6-5.4-6.9l-11.6-12.6l-12.8-11.2c-9.2-7.7-26-18.7-38-21
				c-4.6-0.9-6,1-8.1,3.3c-3.7,4.3-0.7,5.4-1.9,8.6c-2,0.8-2.4-0.5-5.1-0.8c-1.3,0.9-3.8,3.6-4.2,5c1.1,2.1,1.8,1.1,2,3.5
				c-1.9,2.9-2.7,0.9-5,0.1c-2,1.8-4.2,4.6-5.9,6.6c-2,2.3-3.7,4.3-5.7,6.5l-34.2,38.6c1.9,3.7,16.6,14.7,20.7,15.3
				c6.7,1,18.7-14,24.7-7.2c-0.6,1.6-6.7,7.8-8.3,9.8c-2.6,3.2-5.5,6.2-8.2,9.4l-16.8,19c-7.3,7.7-27.6,30.9-34.6,38.8l-44.2,49.9
				c-9.8,11.3-24.1,30.6-39.8,32.4c-6.6,0.7-10.3-8.2-15.6-10.4c-3.7,3.4-7,7.8-10.2,11.6c-1.6,1.9-3.4,3.9-5.1,5.8
				c-1.1,1.1-4.4,4.7-4.9,5.8c2.1,2.2,15.1,14.1,17.1,14.9c2.2-7.2,6.6-12.3,14.1-14.9c8.1-2.8,15.3-0.2,21.2,4.4
				c4.8,3.7,8.8,12.8,6.7,21.1c-1,3.9-2.6,6.7-4.9,9.4c-2.8,3.4-5.3,3.5-8.1,5.9c2.3,2.5,5.8,5.2,8.5,7.7c2,1.8,6.2,6.3,8.6,7.2
				c2-1.7,19-21,20.2-23c-3.1-3.2-6.3-5.7-9.5-8.5c-2.4-2.1-2.7-2.3-2.6-6.6c0.2-11.5,8-20.6,15.2-28.5l4.3-4.8
				c5.1-6.2,22.3-25.9,27.2-30.8l33.5-37.9c3.2-3.1,18.9-21.6,22.1-24.6L304.4,123.5z"/>
		</g>
	</g>
	<path class="st1" d="M10.5,126.3h439.7c6.9,0,12.5,5.6,12.5,12.5v83.7c0,6.9-5.6,12.5-12.5,12.5H10.5C3.6,235-2,229.4-2,222.5
		v-83.7C-2,131.9,3.6,126.3,10.5,126.3z"/>
	<path class="st2" d="M10.5,131.9c-3.8,0-6.9,3.1-6.9,6.9v83.7c0,3.8,3.1,6.9,6.9,6.9h439.7c3.8,0,6.9-3.1,6.9-6.9v-83.7
		c0-3.8-3.1-6.9-6.9-6.9H10.5z"/>
	<g id="_504661008">
		<path class="st4" d="M357,146.6h25.8l2.3,3.1c2.4,3.3,5.5,7.1,8.1,11.1c2.6-4,5.6-7.8,8.1-11.1l2.3-3.1h25.8v14.7l-14.5,19.2
			l14.5,19.3v14.7h-25.8l-2.3-3.1c-2.5-3.3-5.5-7.1-8.1-11.1c-2.6,4.1-5.6,7.9-8.1,11.1l-2.3,3.1h-48v-17.8h-23.2v17.8H145.1
			l-4.5-11.1h-15.4l-4.5,11.1H74.6v-20.5h-7.8v20.5H38.1v-68h28.8v20.5h7.8v-20.5h28.8V180l13.4-33.4h32.4l13.4,33.4v-33.4h28.8v41
			h18.3v-41h28.8v41h18.3v-41H357z M363.7,170.2v20.9l7.9-10.5L363.7,170.2z"/>
		<path class="st3" d="M60.1,174h21.4v-20.5h15.1v54.3H81.5v-20.5H60.1v20.5H44.9v-54.3h15.1V174z M145.3,196.7h-24.7l-4.5,11.1
			h-14.4v-5.4l19.6-49h23.2l19.6,49v5.4h-14.4L145.3,196.7z M184.5,194.5h26.7v13.4h-41.9v-54.3h15.1V194.5z M231.6,194.5h26.8v13.4
			h-41.9v-54.3h15.1V194.5z M263.5,153.5h15.2v54.3h-15.2V153.5z M304.9,190v17.8h-15.1v-54.3h45.4v13.4h-30.3v9.8h24.9V190H304.9z
			 M341.7,153.5h15.1v54.3h-15.1V153.5z M395,187.3h-3.6c-0.2,2.8-1.4,5.3-2.9,7.7c-2.6,4.3-5.9,8.4-8.8,12.4l-0.3,0.3h-15.6v-5.6
			l16.3-21.5l-16.3-21.5v-5.6h15.6l0.3,0.3c3,4,6.3,8.2,8.8,12.4c1.4,2.4,2.7,4.9,2.9,7.7h3.6c0.2-2.8,1.4-5.3,2.9-7.7
			c2.6-4.3,5.9-8.5,8.8-12.4l0.3-0.3h15.6v5.6l-16.3,21.5l16.3,21.5v5.6h-15.6l-0.3-0.3c-3-4-6.3-8.2-8.8-12.4
			C396.5,192.6,395.3,190.1,395,187.3z M130.3,167.7c-0.3,5.1-2.9,11.3-4.9,16.1h15.2c-2-4.8-4.6-11-4.9-16.1H130.3z"/>
		<path class="st1" d="M59.1,154.3H45.8v52.6h13.4v-20.5h23.2v20.5h13.4v-52.6H82.3v20.5H59.1V154.3z M122,154.3l-19.3,48.3v4.3
			h12.9l4.5-11.1h25.9l4.5,11.1h12.9v-4.3L144,154.3H122z M129.4,166.8h7.1c0,4.5,1.8,8.9,5.3,17.8h-17.8
			C127.6,175.7,129.4,171.3,129.4,166.8z M183.6,154.3h-13.4v52.6h40.1v-11.6h-26.7V154.3z M230.7,154.3h-13.4v52.6h40.1v-11.6
			h-26.7V154.3z M264.5,154.3v52.6h13.4v-52.6H264.5z M304,189.1h24.9v-11.6H304v-11.6h30.3v-11.6h-43.7v52.6H304V189.1z
			 M342.6,154.3v52.6H356v-52.6H342.6z M421.8,202.5l-16.5-21.9l16.5-21.8v-4.5h-14.3c-8,10.7-11.6,15.4-11.6,20.5h-5.3
			c0-5-3.6-9.8-11.6-20.5h-14.3v4.5l16.5,21.8l-16.5,21.9v4.5H379c8-10.7,11.6-15.4,11.6-20.5h5.3c0,5,3.6,9.8,11.6,20.5h14.3V202.5
			z"/>
	</g>
	<g id="_504662064">
		<g>
			<path class="st4" d="M15,186.2c-2.8-3.1-2.8-7.9-0.1-11c2.7-3.2,7.4-3.9,10.9-1.6c0.5,0.3,1.4,1.1,1.7,1.5
				c2.8,3.1,2.9,7.9,0.1,11c-2.7,3.2-7.4,3.9-10.9,1.6C16.3,187.4,15.3,186.6,15,186.2z"/>
			<path class="st1" d="M25.6,176.7c1.9,2.2,2,5.5,0.1,7.7s-5.2,2.7-7.7,1.1L25.6,176.7z M16.9,184.6c-1.9-2.2-2-5.5-0.1-7.7
				s5.2-2.7,7.6-1.1L16.9,184.6z"/>
		</g>
		<g>
			<path class="st4" d="M445.7,186.2c2.8-3.1,2.9-7.9,0.1-11c-2.7-3.2-7.4-3.9-10.9-1.6c-0.4,0.3-1.4,1.1-1.7,1.5
				c-2.8,3.1-2.8,7.9-0.1,11c2.7,3.2,7.4,3.9,10.9,1.6C444.4,187.4,445.3,186.6,445.7,186.2z"/>
			<path class="st1" d="M435,176.7c-1.9,2.2-2,5.5-0.1,7.7s5.2,2.7,7.6,1.1L435,176.7z M443.8,184.6c1.9-2.2,2-5.5,0.1-7.7
				c-1.9-2.3-5.2-2.7-7.7-1.1L443.8,184.6z"/>
		</g>
	</g>
</g>
</svg>
