<?xml version="1.0" encoding="UTF-8"?>
<svg width="24px" height="24px" viewBox="0 0 24 24" xmlns="http://www.w3.org/2000/svg" xmlns:xlink="http://www.w3.org/1999/xlink" version="1.1">
 <!-- Generated by Pixelmator Pro 1.1.5 -->
 <path id="path" d="M12 2 C17.514 2 22 6.486 22 12 22 17.514 17.514 22 12 22 6.486 22 2 17.514 2 12 2 6.486 6.486 2 12 2 Z M12 0 C5.373 0 0 5.373 0 12 0 18.627 5.373 24 12 24 18.627 24 24 18.627 24 12 24 5.373 18.627 0 12 0 Z M13 12 L13 6 11 6 11 14 18 14 18 12 13 12 Z" fill="#ffffff" fill-opacity="1" stroke="none"/>
</svg>
